<?xml version="1.0" encoding="utf-8" standalone="no"?>
<!DOCTYPE svg PUBLIC "-//W3C//DTD SVG 1.1//EN"
  "http://www.w3.org/Graphics/SVG/1.1/DTD/svg11.dtd">
<svg xmlns:xlink="http://www.w3.org/1999/xlink" width="515.52pt" height="291.6pt" viewBox="0 0 515.52 291.6" xmlns="http://www.w3.org/2000/svg" version="1.1">
 <metadata>
  <rdf:RDF xmlns:dc="http://purl.org/dc/elements/1.1/" xmlns:cc="http://creativecommons.org/ns#" xmlns:rdf="http://www.w3.org/1999/02/22-rdf-syntax-ns#">
   <cc:Work>
    <dc:type rdf:resource="http://purl.org/dc/dcmitype/StillImage"/>
    <dc:date>2026-10-05T21:00:44.226570</dc:date>
    <dc:format>image/svg+xml</dc:format>
    <dc:creator>
     <cc:Agent>
      <dc:title>Matplotlib v3.9.2, https://matplotlib.org/</dc:title>
     </cc:Agent>
    </dc:creator>
   </cc:Work>
  </rdf:RDF>
 </metadata>
 <defs>
  <style type="text/css">*{stroke-linejoin: round; stroke-linecap: butt}</style>
 </defs>
 <g id="figure_1">
  <g id="patch_1">
   <path d="M 0 291.6 
L 515.52 291.6 
L 515.52 0 
L 0 0 
z
" style="fill: #ffffff"/>
  </g>
  <g id="axes_1">
   <g id="patch_2">
    <path d="M 105.6816 223.074 
L 451.08 223.074 
L 451.08 55.404 
L 105.6816 55.404 
z
" style="fill: #ffffff"/>
   </g>
   <g id="line2d_1">
    <path d="M 114.345331 223.074 
L 114.345331 55.404 
" clip-path="url(#p907cdc2d5b)" style="fill: none; stroke-dasharray: 1.95,1.3; stroke-dashoffset: 0; stroke: #bdc5cc; stroke-width: 0.65"/>
   </g>
   <g id="line2d_2">
    <path d="M 232.202465 223.074 
L 232.202465 55.404 
" clip-path="url(#p907cdc2d5b)" style="fill: none; stroke-dasharray: 3.15,2.1; stroke-dashoffset: 0; stroke: #647583; stroke-width: 1.05"/>
   </g>
   <g id="line2d_3">
    <path d="M 282.712666 223.074 
L 282.712666 55.404 
" clip-path="url(#p907cdc2d5b)" style="fill: none; stroke-dasharray: 1.95,1.3; stroke-dashoffset: 0; stroke: #bdc5cc; stroke-width: 0.65"/>
   </g>
   <g id="line2d_4">
    <path d="M 400.5698 223.074 
L 400.5698 55.404 
" clip-path="url(#p907cdc2d5b)" style="fill: none; stroke-dasharray: 1.95,1.3; stroke-dashoffset: 0; stroke: #bdc5cc; stroke-width: 0.65"/>
   </g>
   <g id="line2d_5">
    <path d="M 105.6816 65.985117 
L 451.08 65.985117 
" clip-path="url(#p907cdc2d5b)" style="fill: none; stroke: #e5eaf0; stroke-width: 0.55; stroke-linecap: square"/>
   </g>
   <g id="line2d_6">
    <path d="M 105.6816 82.263757 
L 451.08 82.263757 
" clip-path="url(#p907cdc2d5b)" style="fill: none; stroke: #e5eaf0; stroke-width: 0.55; stroke-linecap: square"/>
   </g>
   <g id="line2d_7">
    <path d="M 105.6816 98.542398 
L 451.08 98.542398 
" clip-path="url(#p907cdc2d5b)" style="fill: none; stroke: #e5eaf0; stroke-width: 0.55; stroke-linecap: square"/>
   </g>
   <g id="line2d_8">
    <path d="M 105.6816 114.821039 
L 451.08 114.821039 
" clip-path="url(#p907cdc2d5b)" style="fill: none; stroke: #e5eaf0; stroke-width: 0.55; stroke-linecap: square"/>
   </g>
   <g id="line2d_9">
    <path d="M 105.6816 131.09968 
L 451.08 131.09968 
" clip-path="url(#p907cdc2d5b)" style="fill: none; stroke: #e5eaf0; stroke-width: 0.55; stroke-linecap: square"/>
   </g>
   <g id="line2d_10">
    <path d="M 105.6816 147.37832 
L 451.08 147.37832 
" clip-path="url(#p907cdc2d5b)" style="fill: none; stroke: #e5eaf0; stroke-width: 0.55; stroke-linecap: square"/>
   </g>
   <g id="line2d_11">
    <path d="M 105.6816 163.656961 
L 451.08 163.656961 
" clip-path="url(#p907cdc2d5b)" style="fill: none; stroke: #e5eaf0; stroke-width: 0.55; stroke-linecap: square"/>
   </g>
   <g id="line2d_12">
    <path d="M 105.6816 179.935602 
L 451.08 179.935602 
" clip-path="url(#p907cdc2d5b)" style="fill: none; stroke: #e5eaf0; stroke-width: 0.55; stroke-linecap: square"/>
   </g>
   <g id="line2d_13">
    <path d="M 105.6816 196.214243 
L 451.08 196.214243 
" clip-path="url(#p907cdc2d5b)" style="fill: none; stroke: #e5eaf0; stroke-width: 0.55; stroke-linecap: square"/>
   </g>
   <g id="line2d_14">
    <path d="M 105.6816 212.492883 
L 451.08 212.492883 
" clip-path="url(#p907cdc2d5b)" style="fill: none; stroke: #e5eaf0; stroke-width: 0.55; stroke-linecap: square"/>
   </g>
   <g id="matplotlib.axis_1">
    <g id="xtick_1">
     <g id="line2d_15">
      <defs>
       <path id="m4a288a8ef0" d="M 0 0 
L 0 3.5 
" style="stroke: #657382; stroke-width: 0.8"/>
      </defs>
      <g>
       <use xlink:href="#m4a288a8ef0" x="114.345331" y="223.074" style="fill: #657382; stroke: #657382; stroke-width: 0.8"/>
      </g>
     </g>
     <g id="text_1">
      <text style="fill: #657382; font: 7.5px 'DejaVu Sans'; text-anchor: middle" x="114.345331" y="235.772828" transform="rotate(-0 114.345331 235.772828)">1</text>
     </g>
    </g>
    <g id="xtick_2">
     <g id="line2d_16">
      <g>
       <use xlink:href="#m4a288a8ef0" x="170.275749" y="223.074" style="fill: #657382; stroke: #657382; stroke-width: 0.8"/>
      </g>
     </g>
     <g id="text_2">
      <text style="fill: #657382; font: 7.5px 'DejaVu Sans'; text-anchor: middle" x="170.275749" y="235.772828" transform="rotate(-0 170.275749 235.772828)">10</text>
     </g>
    </g>
    <g id="xtick_3">
     <g id="line2d_17">
      <g>
       <use xlink:href="#m4a288a8ef0" x="232.202465" y="223.074" style="fill: #657382; stroke: #657382; stroke-width: 0.8"/>
      </g>
     </g>
     <g id="text_3">
      <text style="fill: #657382; font: 7.5px 'DejaVu Sans'; text-anchor: middle" x="232.202465" y="235.772828" transform="rotate(-0 232.202465 235.772828)">128</text>
     </g>
    </g>
    <g id="xtick_4">
     <g id="line2d_18">
      <g>
       <use xlink:href="#m4a288a8ef0" x="282.712666" y="223.074" style="fill: #657382; stroke: #657382; stroke-width: 0.8"/>
      </g>
     </g>
     <g id="text_4">
      <text style="fill: #657382; font: 7.5px 'DejaVu Sans'; text-anchor: middle" x="282.712666" y="235.772828" transform="rotate(-0 282.712666 235.772828)">1K</text>
     </g>
    </g>
    <g id="xtick_5">
     <g id="line2d_19">
      <g>
       <use xlink:href="#m4a288a8ef0" x="350.059599" y="223.074" style="fill: #657382; stroke: #657382; stroke-width: 0.8"/>
      </g>
     </g>
     <g id="text_5">
      <text style="fill: #657382; font: 7.5px 'DejaVu Sans'; text-anchor: middle" x="350.059599" y="235.772828" transform="rotate(-0 350.059599 235.772828)">16K</text>
     </g>
    </g>
    <g id="xtick_6">
     <g id="line2d_20">
      <g>
       <use xlink:href="#m4a288a8ef0" x="400.5698" y="223.074" style="fill: #657382; stroke: #657382; stroke-width: 0.8"/>
      </g>
     </g>
     <g id="text_6">
      <text style="fill: #657382; font: 7.5px 'DejaVu Sans'; text-anchor: middle" x="400.5698" y="235.772828" transform="rotate(-0 400.5698 235.772828)">128K</text>
     </g>
    </g>
    <g id="xtick_7">
     <g id="line2d_21">
      <g>
       <use xlink:href="#m4a288a8ef0" x="451.08" y="223.074" style="fill: #657382; stroke: #657382; stroke-width: 0.8"/>
      </g>
     </g>
     <g id="text_7">
      <text style="fill: #657382; font: 7.5px 'DejaVu Sans'; text-anchor: middle" x="451.08" y="235.772828" transform="rotate(-0 451.08 235.772828)">1M</text>
     </g>
    </g>
    <g id="xtick_8">
     <g id="line2d_22"/>
    </g>
    <g id="xtick_9">
     <g id="line2d_23"/>
    </g>
    <g id="xtick_10">
     <g id="line2d_24"/>
    </g>
    <g id="xtick_11">
     <g id="line2d_25"/>
    </g>
    <g id="xtick_12">
     <g id="line2d_26"/>
    </g>
    <g id="xtick_13">
     <g id="line2d_27"/>
    </g>
    <g id="xtick_14">
     <g id="line2d_28"/>
    </g>
    <g id="xtick_15">
     <g id="line2d_29"/>
    </g>
    <g id="xtick_16">
     <g id="line2d_30"/>
    </g>
    <g id="xtick_17">
     <g id="line2d_31"/>
    </g>
    <g id="xtick_18">
     <g id="line2d_32"/>
    </g>
    <g id="xtick_19">
     <g id="line2d_33"/>
    </g>
    <g id="xtick_20">
     <g id="line2d_34"/>
    </g>
    <g id="xtick_21">
     <g id="line2d_35"/>
    </g>
    <g id="xtick_22">
     <g id="line2d_36"/>
    </g>
    <g id="xtick_23">
     <g id="line2d_37"/>
    </g>
    <g id="xtick_24">
     <g id="line2d_38"/>
    </g>
    <g id="xtick_25">
     <g id="line2d_39"/>
    </g>
    <g id="xtick_26">
     <g id="line2d_40"/>
    </g>
    <g id="xtick_27">
     <g id="line2d_41"/>
    </g>
    <g id="xtick_28">
     <g id="line2d_42"/>
    </g>
    <g id="xtick_29">
     <g id="line2d_43"/>
    </g>
    <g id="xtick_30">
     <g id="line2d_44"/>
    </g>
    <g id="xtick_31">
     <g id="line2d_45"/>
    </g>
    <g id="xtick_32">
     <g id="line2d_46"/>
    </g>
    <g id="xtick_33">
     <g id="line2d_47"/>
    </g>
    <g id="xtick_34">
     <g id="line2d_48"/>
    </g>
    <g id="xtick_35">
     <g id="line2d_49"/>
    </g>
    <g id="xtick_36">
     <g id="line2d_50"/>
    </g>
    <g id="xtick_37">
     <g id="line2d_51"/>
    </g>
    <g id="xtick_38">
     <g id="line2d_52"/>
    </g>
    <g id="xtick_39">
     <g id="line2d_53"/>
    </g>
    <g id="xtick_40">
     <g id="line2d_54"/>
    </g>
    <g id="xtick_41">
     <g id="line2d_55"/>
    </g>
    <g id="xtick_42">
     <g id="line2d_56"/>
    </g>
    <g id="xtick_43">
     <g id="line2d_57"/>
    </g>
    <g id="xtick_44">
     <g id="line2d_58"/>
    </g>
    <g id="xtick_45">
     <g id="line2d_59"/>
    </g>
    <g id="xtick_46">
     <g id="line2d_60"/>
    </g>
    <g id="xtick_47">
     <g id="line2d_61"/>
    </g>
    <g id="xtick_48">
     <g id="line2d_62"/>
    </g>
    <g id="xtick_49">
     <g id="line2d_63"/>
    </g>
    <g id="xtick_50">
     <g id="line2d_64"/>
    </g>
    <g id="xtick_51">
     <g id="line2d_65"/>
    </g>
    <g id="xtick_52">
     <g id="line2d_66"/>
    </g>
    <g id="xtick_53">
     <g id="line2d_67"/>
    </g>
    <g id="xtick_54">
     <g id="line2d_68"/>
    </g>
    <g id="xtick_55">
     <g id="line2d_69"/>
    </g>
    <g id="xtick_56">
     <g id="line2d_70"/>
    </g>
    <g id="xtick_57">
     <g id="line2d_71"/>
    </g>
    <g id="xtick_58">
     <g id="line2d_72"/>
    </g>
    <g id="text_8">
     <!-- Critical reuse $U^*=T_R/\Delta_S$ (vectors / full native load) -->
     <g style="fill: #182838" transform="translate(176.6208 250.388844)">
      <text>
       <tspan style="font: 8px 'DejaVu Sans'" x="0 5.585938 8.875 11.097656 14.234375 16.457031 20.855469 25.757812 27.980469 30.523438 33.8125 38.734375 43.804688 47.972656 52.894531 68.613073 85.871276 88.566589 97.889245 100.432214 103.553307 108.287682 113.209557 117.607995 120.744714 125.639245 128.928307 133.096276 135.639245 138.334557 140.877526 143.693932 148.764245 150.986901 153.209557 155.752526 160.822839 165.725182 168.861901 171.084557 175.818932 180.740807 183.283776 185.506432 190.400964 195.303307 200.381432" y="-0.78125">Critical reuse =/Δ (vectors / full native load)</tspan>
       <tspan style="font: oblique 8px 'DejaVu Sans'" x="55.4375 76.874792" y="-0.78125">UT</tspan>
       <tspan style="font: 5.6px 'DejaVu Sans'" x="62.944714" y="-3.84375">*</tspan>
       <tspan style="font: oblique 5.6px 'DejaVu Sans'" x="81.76151 94.115807" y="0.53125">RS</tspan>
      </text>
     </g>
    </g>
   </g>
   <g id="matplotlib.axis_2">
    <g id="ytick_1">
     <g id="line2d_73"/>
     <g id="text_9">
      <text style="fill: #2d63ad; font: 7.5px 'DejaVu Sans'; text-anchor: end" x="97.6816" y="68.834531" transform="rotate(-0 97.6816 68.834531)">SRAM ACIM</text>
     </g>
    </g>
    <g id="ytick_2">
     <g id="line2d_74"/>
     <g id="text_10">
      <text style="fill: #6e52a2; font: 7.5px 'DejaVu Sans'; text-anchor: end" x="97.6816" y="85.113171" transform="rotate(-0 97.6816 85.113171)">SRAM DCIM</text>
     </g>
    </g>
    <g id="ytick_3">
     <g id="line2d_75"/>
     <g id="text_11">
      <text style="fill: #7b8736; font: 7.5px 'DejaVu Sans'; text-anchor: end" x="97.6816" y="101.391812" transform="rotate(-0 97.6816 101.391812)">Gain-cell eDRAM</text>
     </g>
    </g>
    <g id="ytick_4">
     <g id="line2d_76"/>
     <g id="text_12">
      <text style="fill: #338fa5; font: 7.5px 'DejaVu Sans'; text-anchor: end" x="97.6816" y="117.670453" transform="rotate(-0 97.6816 117.670453)">HfO2 FeRAM</text>
     </g>
    </g>
    <g id="ytick_5">
     <g id="line2d_77"/>
     <g id="text_13">
      <text style="fill: #ca6b2b; font: 7.5px 'DejaVu Sans'; text-anchor: end" x="97.6816" y="133.949094" transform="rotate(-0 97.6816 133.949094)">PCM</text>
     </g>
    </g>
    <g id="ytick_6">
     <g id="line2d_78"/>
     <g id="text_14">
      <text style="fill: #ad5390; font: 7.5px 'DejaVu Sans'; text-anchor: end" x="97.6816" y="150.227734" transform="rotate(-0 97.6816 150.227734)">3D FeFET</text>
     </g>
    </g>
    <g id="ytick_7">
     <g id="line2d_79"/>
     <g id="text_15">
      <text style="fill: #178276; font: 7.5px 'DejaVu Sans'; text-anchor: end" x="97.6816" y="166.506375" transform="rotate(-0 97.6816 166.506375)">MRAM</text>
     </g>
    </g>
    <g id="ytick_8">
     <g id="line2d_80"/>
     <g id="text_16">
      <text style="fill: #c54e55; font: 7.5px 'DejaVu Sans'; text-anchor: end" x="97.6816" y="182.785016" transform="rotate(-0 97.6816 182.785016)">RRAM</text>
     </g>
    </g>
    <g id="ytick_9">
     <g id="line2d_81"/>
     <g id="text_17">
      <text style="fill: #68737d; font: 7.5px 'DejaVu Sans'; text-anchor: end" x="97.6816" y="199.063657" transform="rotate(-0 97.6816 199.063657)">3D NAND</text>
     </g>
    </g>
    <g id="ytick_10">
     <g id="line2d_82"/>
     <g id="text_18">
      <text style="fill: #a37622; font: 7.5px 'DejaVu Sans'; text-anchor: end" x="97.6816" y="215.342298" transform="rotate(-0 97.6816 215.342298)">2D NOR</text>
     </g>
    </g>
   </g>
   <g id="line2d_83">
    <path d="M 121.270033 65.985117 
L 125.686059 65.985117 
" clip-path="url(#p907cdc2d5b)" style="fill: none; stroke: #2d63ad; stroke-width: 1.4; stroke-linecap: square"/>
   </g>
   <g id="line2d_84">
    <path d="M 114.553238 82.263757 
L 130.434613 82.263757 
" clip-path="url(#p907cdc2d5b)" style="fill: none; stroke: #6e52a2; stroke-width: 1.4; stroke-linecap: square"/>
   </g>
   <g id="line2d_85">
    <path d="M 147.152465 98.542398 
L 171.900494 98.542398 
" clip-path="url(#p907cdc2d5b)" style="fill: none; stroke: #7b8736; stroke-width: 1.4; stroke-linecap: square"/>
   </g>
   <g id="line2d_86">
    <path d="M 195.824225 114.821039 
L 198.478446 114.821039 
" clip-path="url(#p907cdc2d5b)" style="fill: none; stroke: #338fa5; stroke-width: 1.4; stroke-linecap: square"/>
   </g>
   <g id="line2d_87">
    <path d="M 194.362614 131.09968 
L 221.860418 131.09968 
" clip-path="url(#p907cdc2d5b)" style="fill: none; stroke: #ca6b2b; stroke-width: 1.4; stroke-linecap: square"/>
   </g>
   <g id="line2d_88">
    <path d="M 218.609246 147.37832 
L 238.421726 147.37832 
" clip-path="url(#p907cdc2d5b)" style="fill: none; stroke: #ad5390; stroke-width: 1.4; stroke-linecap: square"/>
   </g>
   <g id="line2d_89">
    <path d="M 224.912843 163.656961 
L 240.578735 163.656961 
" clip-path="url(#p907cdc2d5b)" style="fill: none; stroke: #178276; stroke-width: 1.4; stroke-linecap: square"/>
   </g>
   <g id="line2d_90">
    <path d="M 258.16011 179.935602 
L 262.623264 179.935602 
" clip-path="url(#p907cdc2d5b)" style="fill: none; stroke: #c54e55; stroke-width: 1.4; stroke-linecap: square"/>
   </g>
   <g id="line2d_91">
    <path d="M 307.484751 196.214243 
L 319.898911 196.214243 
" clip-path="url(#p907cdc2d5b)" style="fill: none; stroke: #68737d; stroke-width: 1.4; stroke-linecap: square"/>
   </g>
   <g id="line2d_92">
    <path d="M 371.042441 212.492883 
L 416.623294 212.492883 
" clip-path="url(#p907cdc2d5b)" style="fill: none; stroke: #a37622; stroke-width: 1.4; stroke-linecap: square"/>
   </g>
   <g id="patch_3">
    <path d="M 105.6816 223.074 
L 451.08 223.074 
" style="fill: none; stroke: #82909c; stroke-width: 0.6; stroke-linejoin: miter; stroke-linecap: square"/>
   </g>
   <g id="text_19">
    <text style="fill: #2d63ad; font: 7.6px 'DejaVu Sans'; text-anchor: start" x="459.71496" y="68.082242" transform="rotate(-0 459.71496 68.082242)">1.6</text>
   </g>
   <g id="text_20">
    <text style="fill: #6e52a2; font: 7.6px 'DejaVu Sans'; text-anchor: start" x="459.71496" y="84.360882" transform="rotate(-0 459.71496 84.360882)">1.9</text>
   </g>
   <g id="text_21">
    <text style="fill: #7b8736; font: 7.6px 'DejaVu Sans'; text-anchor: start" x="459.71496" y="100.639523" transform="rotate(-0 459.71496 100.639523)">5.2</text>
   </g>
   <g id="text_22">
    <text style="fill: #338fa5; font: 7.6px 'DejaVu Sans'; text-anchor: start" x="459.71496" y="116.918164" transform="rotate(-0 459.71496 116.918164)">31.9</text>
   </g>
   <g id="text_23">
    <text style="fill: #ca6b2b; font: 7.6px 'DejaVu Sans'; text-anchor: start" x="459.71496" y="133.196805" transform="rotate(-0 459.71496 133.196805)">46.5</text>
   </g>
   <g id="text_24">
    <text style="fill: #ad5390; font: 7.6px 'DejaVu Sans'; text-anchor: start" x="459.71496" y="149.475445" transform="rotate(-0 459.71496 149.475445)">99.4</text>
   </g>
   <g id="text_25">
    <text style="fill: #178276; font: 7.6px 'DejaVu Sans'; text-anchor: start" x="459.71496" y="165.754086" transform="rotate(-0 459.71496 165.754086)">132.7</text>
   </g>
   <g id="text_26">
    <text style="fill: #c54e55; font: 7.6px 'DejaVu Sans'; text-anchor: start" x="459.71496" y="182.032727" transform="rotate(-0 459.71496 182.032727)">372.7</text>
   </g>
   <g id="text_27">
    <text style="fill: #68737d; font: 7.6px 'DejaVu Sans'; text-anchor: start" x="459.71496" y="198.311368" transform="rotate(-0 459.71496 198.311368)">2,839</text>
   </g>
   <g id="text_28">
    <text style="fill: #a37622; font: 7.6px 'DejaVu Sans'; text-anchor: start" x="459.71496" y="214.590008" transform="rotate(-0 459.71496 214.590008)">38,867</text>
   </g>
   <g id="text_29">
    <!-- Typical $U^*$ -->
    <g style="fill: #657382" transform="translate(459.71496 47.98155)">
     <text>
      <tspan style="font: 7.4px 'DejaVu Sans'" x="0 4.514481 8.888229 13.579544 15.632889 19.696289 24.225204 26.278549" y="-0.328125">Typical </tspan>
      <tspan style="font: oblique 7.4px 'DejaVu Sans'" x="28.627808" y="-0.328125">U</tspan>
      <tspan style="font: 5.18px 'DejaVu Sans'" x="35.563776" y="-3.1609374999999997">*</tspan>
     </text>
    </g>
   </g>
   <g id="PathCollection_1">
    <defs>
     <path id="md3d4c8323f" d="M 0 2.5 
C 0.663008 2.5 1.29895 2.236584 1.767767 1.767767 
C 2.236584 1.29895 2.5 0.663008 2.5 0 
C 2.5 -0.663008 2.236584 -1.29895 1.767767 -1.767767 
C 1.29895 -2.236584 0.663008 -2.5 0 -2.5 
C -0.663008 -2.5 -1.29895 -2.236584 -1.767767 -1.767767 
C -2.236584 -1.29895 -2.5 -0.663008 -2.5 0 
C -2.5 0.663008 -2.236584 1.29895 -1.767767 1.767767 
C -1.29895 2.236584 -0.663008 2.5 0 2.5 
z
" style="stroke: #2d63ad; stroke-width: 0.8"/>
    </defs>
    <g clip-path="url(#p907cdc2d5b)">
     <use xlink:href="#md3d4c8323f" x="123.585144" y="63.868893" style="fill: #ffffff; stroke: #2d63ad; stroke-width: 0.8"/>
    </g>
   </g>
   <g id="PathCollection_2">
    <defs>
     <path id="mf82611f7a2" d="M 0 2.5 
C 0.663008 2.5 1.29895 2.236584 1.767767 1.767767 
C 2.236584 1.29895 2.5 0.663008 2.5 0 
C 2.5 -0.663008 2.236584 -1.29895 1.767767 -1.767767 
C 1.29895 -2.236584 0.663008 -2.5 0 -2.5 
C -0.663008 -2.5 -1.29895 -2.236584 -1.767767 -1.767767 
C -2.236584 -1.29895 -2.5 -0.663008 -2.5 0 
C -2.5 0.663008 -2.236584 1.29895 -1.767767 1.767767 
C -1.29895 2.236584 -0.663008 2.5 0 2.5 
z
" style="stroke: #2d63ad; stroke-width: 0.8"/>
    </defs>
    <g clip-path="url(#p907cdc2d5b)">
     <use xlink:href="#mf82611f7a2" x="121.270033" y="68.10134" style="fill: #2d63ad; fill-opacity: 0.32; stroke: #2d63ad; stroke-width: 0.8"/>
    </g>
   </g>
   <g id="PathCollection_3">
    <defs>
     <path id="m73c89a6e39" d="M 0 3.278719 
C 0.869527 3.278719 1.703557 2.933253 2.318405 2.318405 
C 2.933253 1.703557 3.278719 0.869527 3.278719 0 
C 3.278719 -0.869527 2.933253 -1.703557 2.318405 -2.318405 
C 1.703557 -2.933253 0.869527 -3.278719 0 -3.278719 
C -0.869527 -3.278719 -1.703557 -2.933253 -2.318405 -2.318405 
C -2.933253 -1.703557 -3.278719 -0.869527 -3.278719 0 
C -3.278719 0.869527 -2.933253 1.703557 -2.318405 2.318405 
C -1.703557 2.933253 -0.869527 3.278719 0 3.278719 
z
" style="stroke: #2d63ad; stroke-width: 0.8"/>
    </defs>
    <g clip-path="url(#p907cdc2d5b)">
     <use xlink:href="#m73c89a6e39" x="125.686059" y="65.985117" style="fill: #2d63ad; stroke: #2d63ad; stroke-width: 0.8"/>
    </g>
   </g>
   <g id="PathCollection_4">
    <defs>
     <path id="m4de69f8341" d="M -2.5 2.5 
L 2.5 2.5 
L 2.5 -2.5 
L -2.5 -2.5 
z
" style="stroke: #6e52a2; stroke-width: 0.8"/>
    </defs>
    <g clip-path="url(#p907cdc2d5b)">
     <use xlink:href="#m4de69f8341" x="114.553238" y="80.147534" style="fill: #ffffff; stroke: #6e52a2; stroke-width: 0.8"/>
    </g>
   </g>
   <g id="PathCollection_5">
    <defs>
     <path id="m5191533e38" d="M -2.5 2.5 
L 2.5 2.5 
L 2.5 -2.5 
L -2.5 -2.5 
z
" style="stroke: #6e52a2; stroke-width: 0.8"/>
    </defs>
    <g clip-path="url(#p907cdc2d5b)">
     <use xlink:href="#m5191533e38" x="130.434613" y="84.379981" style="fill: #6e52a2; fill-opacity: 0.32; stroke: #6e52a2; stroke-width: 0.8"/>
    </g>
   </g>
   <g id="PathCollection_6">
    <defs>
     <path id="m9d976f5194" d="M -3.278719 3.278719 
L 3.278719 3.278719 
L 3.278719 -3.278719 
L -3.278719 -3.278719 
z
" style="stroke: #6e52a2; stroke-width: 0.8"/>
    </defs>
    <g clip-path="url(#p907cdc2d5b)">
     <use xlink:href="#m9d976f5194" x="130.434613" y="82.263757" style="fill: #6e52a2; stroke: #6e52a2; stroke-width: 0.8"/>
    </g>
   </g>
   <g id="PathCollection_7">
    <defs>
     <path id="mb64b8c8abd" d="M 0 -2.5 
L -2.377641 -0.772542 
L -1.469463 2.022542 
L 1.469463 2.022542 
L 2.377641 -0.772542 
z
" style="stroke: #7b8736; stroke-width: 0.8"/>
    </defs>
    <g clip-path="url(#p907cdc2d5b)">
     <use xlink:href="#mb64b8c8abd" x="171.900494" y="96.426175" style="fill: #ffffff; stroke: #7b8736; stroke-width: 0.8"/>
    </g>
   </g>
   <g id="PathCollection_8">
    <defs>
     <path id="maa0ca9cc3c" d="M 0 -2.5 
L -2.377641 -0.772542 
L -1.469463 2.022542 
L 1.469463 2.022542 
L 2.377641 -0.772542 
z
" style="stroke: #7b8736; stroke-width: 0.8"/>
    </defs>
    <g clip-path="url(#p907cdc2d5b)">
     <use xlink:href="#maa0ca9cc3c" x="147.152465" y="100.658621" style="fill: #7b8736; fill-opacity: 0.32; stroke: #7b8736; stroke-width: 0.8"/>
    </g>
   </g>
   <g id="PathCollection_9">
    <defs>
     <path id="m918554a8c2" d="M 0 -3.278719 
L -3.118247 -1.01318 
L -1.927183 2.65254 
L 1.927183 2.65254 
L 3.118247 -1.01318 
z
" style="stroke: #7b8736; stroke-width: 0.8"/>
    </defs>
    <g clip-path="url(#p907cdc2d5b)">
     <use xlink:href="#m918554a8c2" x="154.543033" y="98.542398" style="fill: #7b8736; stroke: #7b8736; stroke-width: 0.8"/>
    </g>
   </g>
   <g id="PathCollection_10">
    <defs>
     <path id="m44cdeb666d" d="M 0 -2.5 
L -2.165064 -1.25 
L -2.165064 1.25 
L -0 2.5 
L 2.165064 1.25 
L 2.165064 -1.25 
z
" style="stroke: #338fa5; stroke-width: 0.8"/>
    </defs>
    <g clip-path="url(#p907cdc2d5b)">
     <use xlink:href="#m44cdeb666d" x="195.824225" y="112.704816" style="fill: #ffffff; stroke: #338fa5; stroke-width: 0.8"/>
    </g>
   </g>
   <g id="PathCollection_11">
    <defs>
     <path id="m4af8b79f63" d="M 0 -2.5 
L -2.165064 -1.25 
L -2.165064 1.25 
L -0 2.5 
L 2.165064 1.25 
L 2.165064 -1.25 
z
" style="stroke: #338fa5; stroke-width: 0.8"/>
    </defs>
    <g clip-path="url(#p907cdc2d5b)">
     <use xlink:href="#m4af8b79f63" x="197.683602" y="116.937262" style="fill: #338fa5; fill-opacity: 0.32; stroke: #338fa5; stroke-width: 0.8"/>
    </g>
   </g>
   <g id="PathCollection_12">
    <defs>
     <path id="mae378ee63b" d="M 0 -3.278719 
L -2.839454 -1.63936 
L -2.839454 1.63936 
L -0 3.278719 
L 2.839454 1.63936 
L 2.839454 -1.63936 
z
" style="stroke: #338fa5; stroke-width: 0.8"/>
    </defs>
    <g clip-path="url(#p907cdc2d5b)">
     <use xlink:href="#mae378ee63b" x="198.478446" y="114.821039" style="fill: #338fa5; stroke: #338fa5; stroke-width: 0.8"/>
    </g>
   </g>
   <g id="PathCollection_13">
    <defs>
     <path id="med94a3a5c8" d="M -1.25 2.5 
L 0 1.25 
L 1.25 2.5 
L 2.5 1.25 
L 1.25 0 
L 2.5 -1.25 
L 1.25 -2.5 
L 0 -1.25 
L -1.25 -2.5 
L -2.5 -1.25 
L -1.25 0 
L -2.5 1.25 
z
" style="stroke: #ca6b2b; stroke-width: 0.8"/>
    </defs>
    <g clip-path="url(#p907cdc2d5b)">
     <use xlink:href="#med94a3a5c8" x="221.860418" y="128.983456" style="fill: #ffffff; stroke: #ca6b2b; stroke-width: 0.8"/>
    </g>
   </g>
   <g id="PathCollection_14">
    <defs>
     <path id="m19de93984c" d="M -1.25 2.5 
L 0 1.25 
L 1.25 2.5 
L 2.5 1.25 
L 1.25 0 
L 2.5 -1.25 
L 1.25 -2.5 
L 0 -1.25 
L -1.25 -2.5 
L -2.5 -1.25 
L -1.25 0 
L -2.5 1.25 
z
" style="stroke: #ca6b2b; stroke-width: 0.8"/>
    </defs>
    <g clip-path="url(#p907cdc2d5b)">
     <use xlink:href="#m19de93984c" x="194.362614" y="133.215903" style="fill: #ca6b2b; fill-opacity: 0.32; stroke: #ca6b2b; stroke-width: 0.8"/>
    </g>
   </g>
   <g id="PathCollection_15">
    <defs>
     <path id="m446f1fe53d" d="M -1.63936 3.278719 
L 0 1.63936 
L 1.63936 3.278719 
L 3.278719 1.63936 
L 1.63936 0 
L 3.278719 -1.63936 
L 1.63936 -3.278719 
L 0 -1.63936 
L -1.63936 -3.278719 
L -3.278719 -1.63936 
L -1.63936 0 
L -3.278719 1.63936 
z
" style="stroke: #ca6b2b; stroke-width: 0.8"/>
    </defs>
    <g clip-path="url(#p907cdc2d5b)">
     <use xlink:href="#m446f1fe53d" x="207.630404" y="131.09968" style="fill: #ca6b2b; stroke: #ca6b2b; stroke-width: 0.8"/>
    </g>
   </g>
   <g id="PathCollection_16">
    <defs>
     <path id="mb2395bfbd8" d="M 0 -2.5 
L -0.561285 -0.772542 
L -2.377641 -0.772542 
L -0.908178 0.295085 
L -1.469463 2.022542 
L -0 0.954915 
L 1.469463 2.022542 
L 0.908178 0.295085 
L 2.377641 -0.772542 
L 0.561285 -0.772542 
z
" style="stroke: #ad5390; stroke-width: 0.8"/>
    </defs>
    <g clip-path="url(#p907cdc2d5b)">
     <use xlink:href="#mb2395bfbd8" x="238.421726" y="145.262097" style="fill: #ffffff; stroke: #ad5390; stroke-width: 0.8"/>
    </g>
   </g>
   <g id="PathCollection_17">
    <defs>
     <path id="maaba5a35ba" d="M 0 -2.5 
L -0.561285 -0.772542 
L -2.377641 -0.772542 
L -0.908178 0.295085 
L -1.469463 2.022542 
L -0 0.954915 
L 1.469463 2.022542 
L 0.908178 0.295085 
L 2.377641 -0.772542 
L 0.561285 -0.772542 
z
" style="stroke: #ad5390; stroke-width: 0.8"/>
    </defs>
    <g clip-path="url(#p907cdc2d5b)">
     <use xlink:href="#maaba5a35ba" x="218.609246" y="149.494544" style="fill: #ad5390; fill-opacity: 0.32; stroke: #ad5390; stroke-width: 0.8"/>
    </g>
   </g>
   <g id="PathCollection_18">
    <defs>
     <path id="m3b3b9c45b2" d="M 0 -3.278719 
L -0.736118 -1.01318 
L -3.118247 -1.01318 
L -1.191064 0.387 
L -1.927183 2.65254 
L -0 1.252359 
L 1.927183 2.65254 
L 1.191064 0.387 
L 3.118247 -1.01318 
L 0.736118 -1.01318 
z
" style="stroke: #ad5390; stroke-width: 0.8"/>
    </defs>
    <g clip-path="url(#p907cdc2d5b)">
     <use xlink:href="#m3b3b9c45b2" x="226.059807" y="147.37832" style="fill: #ad5390; stroke: #ad5390; stroke-width: 0.8"/>
    </g>
   </g>
   <g id="PathCollection_19">
    <defs>
     <path id="me7572b2a90" d="M -0.833333 2.5 
L 0.833333 2.5 
L 0.833333 0.833333 
L 2.5 0.833333 
L 2.5 -0.833333 
L 0.833333 -0.833333 
L 0.833333 -2.5 
L -0.833333 -2.5 
L -0.833333 -0.833333 
L -2.5 -0.833333 
L -2.5 0.833333 
L -0.833333 0.833333 
z
" style="stroke: #178276; stroke-width: 0.8"/>
    </defs>
    <g clip-path="url(#p907cdc2d5b)">
     <use xlink:href="#me7572b2a90" x="240.578735" y="161.540738" style="fill: #ffffff; stroke: #178276; stroke-width: 0.8"/>
    </g>
   </g>
   <g id="PathCollection_20">
    <defs>
     <path id="m0e4341bec6" d="M -0.833333 2.5 
L 0.833333 2.5 
L 0.833333 0.833333 
L 2.5 0.833333 
L 2.5 -0.833333 
L 0.833333 -0.833333 
L 0.833333 -2.5 
L -0.833333 -2.5 
L -0.833333 -0.833333 
L -2.5 -0.833333 
L -2.5 0.833333 
L -0.833333 0.833333 
z
" style="stroke: #178276; stroke-width: 0.8"/>
    </defs>
    <g clip-path="url(#p907cdc2d5b)">
     <use xlink:href="#m0e4341bec6" x="224.912843" y="165.773184" style="fill: #178276; fill-opacity: 0.32; stroke: #178276; stroke-width: 0.8"/>
    </g>
   </g>
   <g id="PathCollection_21">
    <defs>
     <path id="m76eea85431" d="M -1.092906 3.278719 
L 1.092906 3.278719 
L 1.092906 1.092906 
L 3.278719 1.092906 
L 3.278719 -1.092906 
L 1.092906 -1.092906 
L 1.092906 -3.278719 
L -1.092906 -3.278719 
L -1.092906 -1.092906 
L -3.278719 -1.092906 
L -3.278719 1.092906 
L -1.092906 1.092906 
z
" style="stroke: #178276; stroke-width: 0.8"/>
    </defs>
    <g clip-path="url(#p907cdc2d5b)">
     <use xlink:href="#m76eea85431" x="233.085845" y="163.656961" style="fill: #178276; stroke: #178276; stroke-width: 0.8"/>
    </g>
   </g>
   <g id="PathCollection_22">
    <defs>
     <path id="m7c78e3b614" d="M -0 3.535534 
L 3.535534 0 
L 0 -3.535534 
L -3.535534 -0 
z
" style="stroke: #c54e55; stroke-width: 0.8"/>
    </defs>
    <g clip-path="url(#p907cdc2d5b)">
     <use xlink:href="#m7c78e3b614" x="261.518358" y="177.819379" style="fill: #ffffff; stroke: #c54e55; stroke-width: 0.8"/>
    </g>
   </g>
   <g id="PathCollection_23">
    <defs>
     <path id="m29af91ecba" d="M -0 3.535534 
L 3.535534 0 
L 0 -3.535534 
L -3.535534 -0 
z
" style="stroke: #c54e55; stroke-width: 0.8"/>
    </defs>
    <g clip-path="url(#p907cdc2d5b)">
     <use xlink:href="#m29af91ecba" x="262.623264" y="182.051825" style="fill: #c54e55; fill-opacity: 0.32; stroke: #c54e55; stroke-width: 0.8"/>
    </g>
   </g>
   <g id="PathCollection_24">
    <defs>
     <path id="m9a1415dae4" d="M -0 4.636809 
L 4.636809 0 
L 0 -4.636809 
L -4.636809 -0 
z
" style="stroke: #c54e55; stroke-width: 0.8"/>
    </defs>
    <g clip-path="url(#p907cdc2d5b)">
     <use xlink:href="#m9a1415dae4" x="258.16011" y="179.935602" style="fill: #c54e55; stroke: #c54e55; stroke-width: 0.8"/>
    </g>
   </g>
   <g id="PathCollection_25">
    <defs>
     <path id="md4a1540713" d="M -0 2.5 
L 2.5 -2.5 
L -2.5 -2.5 
z
" style="stroke: #68737d; stroke-width: 0.8"/>
    </defs>
    <g clip-path="url(#p907cdc2d5b)">
     <use xlink:href="#md4a1540713" x="312.507201" y="194.098019" style="fill: #ffffff; stroke: #68737d; stroke-width: 0.8"/>
    </g>
   </g>
   <g id="PathCollection_26">
    <defs>
     <path id="m7681b31a22" d="M -0 2.5 
L 2.5 -2.5 
L -2.5 -2.5 
z
" style="stroke: #68737d; stroke-width: 0.8"/>
    </defs>
    <g clip-path="url(#p907cdc2d5b)">
     <use xlink:href="#m7681b31a22" x="319.898911" y="198.330466" style="fill: #68737d; fill-opacity: 0.32; stroke: #68737d; stroke-width: 0.8"/>
    </g>
   </g>
   <g id="PathCollection_27">
    <defs>
     <path id="mca64b2de93" d="M -0 3.278719 
L 3.278719 -3.278719 
L -3.278719 -3.278719 
z
" style="stroke: #68737d; stroke-width: 0.8"/>
    </defs>
    <g clip-path="url(#p907cdc2d5b)">
     <use xlink:href="#mca64b2de93" x="307.484751" y="196.214243" style="fill: #68737d; stroke: #68737d; stroke-width: 0.8"/>
    </g>
   </g>
   <g id="PathCollection_28">
    <defs>
     <path id="m78dff48235" d="M 0 -2.5 
L -2.5 2.5 
L 2.5 2.5 
z
" style="stroke: #a37622; stroke-width: 0.8"/>
    </defs>
    <g clip-path="url(#p907cdc2d5b)">
     <use xlink:href="#m78dff48235" x="379.20585" y="210.37666" style="fill: #ffffff; stroke: #a37622; stroke-width: 0.8"/>
    </g>
   </g>
   <g id="PathCollection_29">
    <defs>
     <path id="m327cb4aa7b" d="M 0 -2.5 
L -2.5 2.5 
L 2.5 2.5 
z
" style="stroke: #a37622; stroke-width: 0.8"/>
    </defs>
    <g clip-path="url(#p907cdc2d5b)">
     <use xlink:href="#m327cb4aa7b" x="416.623294" y="214.609107" style="fill: #a37622; fill-opacity: 0.32; stroke: #a37622; stroke-width: 0.8"/>
    </g>
   </g>
   <g id="PathCollection_30">
    <defs>
     <path id="m9b3bde4885" d="M 0 -3.278719 
L -3.278719 3.278719 
L 3.278719 3.278719 
z
" style="stroke: #a37622; stroke-width: 0.8"/>
    </defs>
    <g clip-path="url(#p907cdc2d5b)">
     <use xlink:href="#m9b3bde4885" x="371.042441" y="212.492883" style="fill: #a37622; stroke: #a37622; stroke-width: 0.8"/>
    </g>
   </g>
   <g id="legend_1">
    <g id="line2d_93">
     <defs>
      <path id="m871841318f" d="M 0 2 
C 0.530406 2 1.03916 1.789267 1.414214 1.414214 
C 1.789267 1.03916 2 0.530406 2 0 
C 2 -0.530406 1.789267 -1.03916 1.414214 -1.414214 
C 1.03916 -1.789267 0.530406 -2 0 -2 
C -0.530406 -2 -1.03916 -1.789267 -1.414214 -1.414214 
C -1.789267 -1.03916 -2 -0.530406 -2 0 
C -2 0.530406 -1.789267 1.03916 -1.414214 1.414214 
C -1.03916 1.789267 -0.530406 2 0 2 
z
" style="stroke: #657382"/>
     </defs>
     <g>
      <use xlink:href="#m871841318f" x="112.718413" y="44.003459" style="fill: #ffffff; stroke: #657382"/>
     </g>
    </g>
    <g id="text_30">
     <text style="fill: #182838; font: 7px 'DejaVu Sans'; text-anchor: start" x="122.518413" y="46.453459" transform="rotate(-0 122.518413 46.453459)">Short-time pair</text>
    </g>
    <g id="line2d_94">
     <defs>
      <path id="mcd85ef8d21" d="M 0 2.5 
C 0.663008 2.5 1.29895 2.236584 1.767767 1.767767 
C 2.236584 1.29895 2.5 0.663008 2.5 0 
C 2.5 -0.663008 2.236584 -1.29895 1.767767 -1.767767 
C 1.29895 -2.236584 0.663008 -2.5 0 -2.5 
C -0.663008 -2.5 -1.29895 -2.236584 -1.767767 -1.767767 
C -2.236584 -1.29895 -2.5 -0.663008 -2.5 0 
C -2.5 0.663008 -2.236584 1.29895 -1.767767 1.767767 
C -1.29895 2.236584 -0.663008 2.5 0 2.5 
z
" style="stroke: #657382"/>
     </defs>
     <g>
      <use xlink:href="#mcd85ef8d21" x="192.224194" y="44.003459" style="fill: #657382; stroke: #657382"/>
     </g>
    </g>
    <g id="text_31">
     <text style="fill: #182838; font: 7px 'DejaVu Sans'; text-anchor: start" x="202.024194" y="46.453459" transform="rotate(-0 202.024194 46.453459)">Typical pair</text>
    </g>
    <g id="line2d_95">
     <defs>
      <path id="m0225745534" d="M 0 2 
C 0.530406 2 1.03916 1.789267 1.414214 1.414214 
C 1.789267 1.03916 2 0.530406 2 0 
C 2 -0.530406 1.789267 -1.03916 1.414214 -1.414214 
C 1.03916 -1.789267 0.530406 -2 0 -2 
C -0.530406 -2 -1.03916 -1.789267 -1.414214 -1.414214 
C -1.789267 -1.03916 -2 -0.530406 -2 0 
C -2 0.530406 -1.789267 1.03916 -1.414214 1.414214 
C -1.03916 1.789267 -0.530406 2 0 2 
z
" style="stroke: #657382"/>
     </defs>
     <g>
      <use xlink:href="#m0225745534" x="258.401538" y="44.003459" style="fill: #c7cdd2; stroke: #657382"/>
     </g>
    </g>
    <g id="text_32">
     <text style="fill: #182838; font: 7px 'DejaVu Sans'; text-anchor: start" x="268.201538" y="46.453459" transform="rotate(-0 268.201538 46.453459)">Long-time pair</text>
    </g>
   </g>
  </g>
  <g id="text_33">
   <text style="fill: #182838; font: 600 10px 'DejaVu Sans'; text-anchor: start" x="12.888" y="19.306187" transform="rotate(-0 12.888 19.306187)">C  |  Reuse needed to balance one full load</text>
  </g>
  <g id="text_34">
   <!-- $U&lt;U^*$: resident-bound    •    $U&gt;U^*$: streaming-bound -->
   <g style="fill: #182838" transform="translate(105.6816 31.2012)">
    <text>
     <tspan style="font: oblique 7.7px 'DejaVu Sans'" x="0 15.063446 113.853381 128.916827" y="-0.06562500000000071">UUUU</tspan>
     <tspan style="font: 7.7px 'DejaVu Sans'" x="7.124451 26.227893 28.81792 31.261554 34.422137 39.151751 43.156909 45.292743 50.172503 54.902118 59.774371 62.788562 65.562518 70.442279 75.145617 80.017871 84.890124 89.769885 92.213519 94.657153 97.100787 104.078845 106.522479 108.966113 111.409747 120.977832 140.081274 142.6713 145.114934 149.120092 152.134283 155.294866 160.02448 164.735326 172.223882 174.359716 179.231969 184.11173 186.885686 191.765447 196.468786 201.341039 206.213293" y="-0.06562500000000071">&lt;: resident-bound        &gt;: streaming-bound</tspan>
     <tspan style="font: 5.39px 'DejaVu Sans'" x="22.278714 136.132095" y="-3.0078125000000004">**</tspan>
     <tspan style="font: 7.7px 'DejaVu Sans Display'" x="99.544421" y="-0.06562500000000071">•</tspan>
    </text>
   </g>
  </g>
  <g id="text_35">
   <text style="fill: #657382; font: 7.3px 'DejaVu Sans'; text-anchor: start" x="105.6816" y="272.3544" transform="rotate(-0 105.6816 272.3544)">Dashed lines: Table II(a) reuse references  U = 1, 128, 1K, 128K</text>
  </g>
  <g id="text_36">
   <text style="fill: #182838; font: 7.2px 'DejaVu Sans'; text-anchor: start" x="105.6816" y="283.7268" transform="rotate(-0 105.6816 283.7268)">MRAM at U = 128: short / typical / long = resident / resident / streaming</text>
  </g>
 </g>
 <defs>
  <clipPath id="p907cdc2d5b">
   <rect x="105.6816" y="55.404" width="345.3984" height="167.67"/>
  </clipPath>
 </defs>
</svg>
