<?xml version="1.0" encoding="utf-8" standalone="no"?>
<!DOCTYPE svg PUBLIC "-//W3C//DTD SVG 1.1//EN"
  "http://www.w3.org/Graphics/SVG/1.1/DTD/svg11.dtd">
<svg xmlns:xlink="http://www.w3.org/1999/xlink" width="515.52pt" height="187.2pt" viewBox="0 0 515.52 187.2" xmlns="http://www.w3.org/2000/svg" version="1.1">
 <metadata>
  <rdf:RDF xmlns:dc="http://purl.org/dc/elements/1.1/" xmlns:cc="http://creativecommons.org/ns#" xmlns:rdf="http://www.w3.org/1999/02/22-rdf-syntax-ns#">
   <cc:Work>
    <dc:type rdf:resource="http://purl.org/dc/dcmitype/StillImage"/>
    <dc:date>2026-10-05T21:02:50.118900</dc:date>
    <dc:format>image/svg+xml</dc:format>
    <dc:creator>
     <cc:Agent>
      <dc:title>Matplotlib v3.9.2, https://matplotlib.org/</dc:title>
     </cc:Agent>
    </dc:creator>
   </cc:Work>
  </rdf:RDF>
 </metadata>
 <defs>
  <style type="text/css">*{stroke-linejoin: round; stroke-linecap: butt}</style>
 </defs>
 <g id="figure_1">
  <g id="patch_1">
   <path d="M 0 187.2 
L 515.52 187.2 
L 515.52 0 
L 0 0 
z
" style="fill: #ffffff"/>
  </g>
  <g id="axes_1">
   <g id="patch_2">
    <path d="M 41.75712 139.464 
L 185.593564 139.464 
L 185.593564 49.608 
L 41.75712 49.608 
z
" style="fill: #ffffff"/>
   </g>
   <g id="line2d_1">
    <path d="M 41.75712 60.223899 
L 185.593564 60.223899 
" clip-path="url(#p0a6e54130f)" style="fill: none; stroke-dasharray: 1.3,1.3; stroke-dashoffset: 0; stroke: #b6c1ca; stroke-width: 0.65"/>
   </g>
   <g id="line2d_2">
    <path d="M 92.902823 139.464 
L 92.902823 49.608 
" clip-path="url(#p0a6e54130f)" style="fill: none; stroke-dasharray: 2.4,1.6; stroke-dashoffset: 0; stroke: #178276; stroke-opacity: 0.7; stroke-width: 0.8"/>
   </g>
   <g id="matplotlib.axis_1">
    <g id="xtick_1">
     <g id="line2d_3">
      <defs>
       <path id="m6b4b9d5c99" d="M 0 0 
L 0 3.5 
" style="stroke: #657382; stroke-width: 0.8"/>
      </defs>
      <g>
       <use xlink:href="#m6b4b9d5c99" x="43.989878" y="139.464" style="fill: #657382; stroke: #657382; stroke-width: 0.8"/>
      </g>
     </g>
     <g id="text_1">
      <text style="fill: #657382; font: 6.8px 'DejaVu Sans'; text-anchor: middle" x="43.989878" y="151.630938" transform="rotate(-0 43.989878 151.630938)">1</text>
     </g>
    </g>
    <g id="xtick_2">
     <g id="line2d_4">
      <g>
       <use xlink:href="#m6b4b9d5c99" x="92.538932" y="139.464" style="fill: #657382; stroke: #657382; stroke-width: 0.8"/>
      </g>
     </g>
     <g id="text_2">
      <text style="fill: #657382; font: 6.8px 'DejaVu Sans'; text-anchor: middle" x="92.538932" y="151.630938" transform="rotate(-0 92.538932 151.630938)">128</text>
     </g>
    </g>
    <g id="xtick_3">
     <g id="line2d_5">
      <g>
       <use xlink:href="#m6b4b9d5c99" x="113.345669" y="139.464" style="fill: #657382; stroke: #657382; stroke-width: 0.8"/>
      </g>
     </g>
     <g id="text_3">
      <text style="fill: #657382; font: 6.8px 'DejaVu Sans'; text-anchor: middle" x="113.345669" y="151.630938" transform="rotate(-0 113.345669 151.630938)">1K</text>
     </g>
    </g>
    <g id="xtick_4">
     <g id="line2d_6">
      <g>
       <use xlink:href="#m6b4b9d5c99" x="161.894723" y="139.464" style="fill: #657382; stroke: #657382; stroke-width: 0.8"/>
      </g>
     </g>
     <g id="text_4">
      <text style="fill: #657382; font: 6.8px 'DejaVu Sans'; text-anchor: middle" x="161.894723" y="151.630938" transform="rotate(-0 161.894723 151.630938)">128K</text>
     </g>
    </g>
    <g id="xtick_5">
     <g id="line2d_7">
      <g>
       <use xlink:href="#m6b4b9d5c99" x="182.70146" y="139.464" style="fill: #657382; stroke: #657382; stroke-width: 0.8"/>
      </g>
     </g>
     <g id="text_5">
      <text style="fill: #657382; font: 6.8px 'DejaVu Sans'; text-anchor: middle" x="182.70146" y="151.630938" transform="rotate(-0 182.70146 151.630938)">1M</text>
     </g>
    </g>
   </g>
   <g id="matplotlib.axis_2">
    <g id="ytick_1">
     <g id="line2d_8">
      <path d="M 41.75712 136.051747 
L 185.593564 136.051747 
" clip-path="url(#p0a6e54130f)" style="fill: none; stroke: #e5eaf0; stroke-width: 0.6; stroke-linecap: square"/>
     </g>
     <g id="line2d_9">
      <defs>
       <path id="md3194b3492" d="M 0 0 
L -3.5 0 
" style="stroke: #657382; stroke-width: 0.8"/>
      </defs>
      <g>
       <use xlink:href="#md3194b3492" x="41.75712" y="136.051747" style="fill: #657382; stroke: #657382; stroke-width: 0.8"/>
      </g>
     </g>
     <g id="text_6">
      <text style="fill: #657382; font: 7.5px 'DejaVu Sans'; text-anchor: end" x="34.75712" y="138.901161" transform="rotate(-0 34.75712 138.901161)">0</text>
     </g>
    </g>
    <g id="ytick_2">
     <g id="line2d_10">
      <path d="M 41.75712 98.137823 
L 185.593564 98.137823 
" clip-path="url(#p0a6e54130f)" style="fill: none; stroke: #e5eaf0; stroke-width: 0.6; stroke-linecap: square"/>
     </g>
     <g id="line2d_11">
      <g>
       <use xlink:href="#md3194b3492" x="41.75712" y="98.137823" style="fill: #657382; stroke: #657382; stroke-width: 0.8"/>
      </g>
     </g>
     <g id="text_7">
      <text style="fill: #657382; font: 7.5px 'DejaVu Sans'; text-anchor: end" x="34.75712" y="100.987237" transform="rotate(-0 34.75712 100.987237)">0.5</text>
     </g>
    </g>
    <g id="ytick_3">
     <g id="line2d_12">
      <path d="M 41.75712 60.223899 
L 185.593564 60.223899 
" clip-path="url(#p0a6e54130f)" style="fill: none; stroke: #e5eaf0; stroke-width: 0.6; stroke-linecap: square"/>
     </g>
     <g id="line2d_13">
      <g>
       <use xlink:href="#md3194b3492" x="41.75712" y="60.223899" style="fill: #657382; stroke: #657382; stroke-width: 0.8"/>
      </g>
     </g>
     <g id="text_8">
      <text style="fill: #657382; font: 7.5px 'DejaVu Sans'; text-anchor: end" x="34.75712" y="63.073313" transform="rotate(-0 34.75712 63.073313)">1.0</text>
     </g>
    </g>
    <g id="text_9">
     <!-- Reference upper bound $P_{\rm bound}/\rho$ -->
     <g style="fill: #182838" transform="translate(14.149776 158.336) rotate(-90)">
      <text>
       <tspan style="font: 8px 'DejaVu Sans'" x="0 5.558594 10.480469 13.296875 18.21875 21.507812 26.429688 31.5 35.898438 40.820312 43.363281 48.433594 53.511719 58.589844 63.511719 66.800781 69.34375 74.421875 79.316406 84.386719 89.457031 94.535156 119.755078" y="-0.921875">Reference upper bound /</tspan>
       <tspan style="font: oblique 8px 'DejaVu Sans'" x="97.078125 122.450391" y="-0.921875">Pρ</tspan>
       <tspan style="font: 5.6px 'DejaVu Sans'" x="101.902344 105.457031 108.883203 112.432422 115.981641" y="0.390625">bound</tspan>
      </text>
     </g>
    </g>
   </g>
   <g id="patch_3">
    <path d="M 41.75712 139.464 
L 41.75712 49.608 
" style="fill: none; stroke: #82909c; stroke-width: 0.6; stroke-linejoin: miter; stroke-linecap: square"/>
   </g>
   <g id="patch_4">
    <path d="M 41.75712 139.464 
L 185.593564 139.464 
" style="fill: none; stroke: #82909c; stroke-width: 0.6; stroke-linejoin: miter; stroke-linecap: square"/>
   </g>
   <g id="line2d_14">
    <path d="M 43.989878 135.480499 
L 49.554239 135.055565 
L 53.926238 134.509693 
L 57.503327 133.847001 
L 60.682962 133.022277 
L 63.465143 132.051161 
L 65.849869 130.974484 
L 67.837141 129.858981 
L 69.824413 128.498396 
L 71.811685 126.838882 
L 73.401503 125.25237 
L 74.99132 123.392651 
L 76.581138 121.212676 
L 78.170955 118.657296 
L 79.760773 115.661864 
L 81.35059 112.1506 
L 82.940408 108.034675 
L 84.530226 103.209961 
L 86.120043 97.554402 
L 87.709861 90.924921 
L 89.299678 83.153803 
L 90.889496 74.044449 
L 92.538932 62.932036 
L 92.902823 60.223899 
L 182.70146 60.223899 
L 182.70146 60.223899 
" clip-path="url(#p0a6e54130f)" style="fill: none; stroke: #178276; stroke-width: 1.8; stroke-linecap: square"/>
   </g>
   <g id="text_10">
    <text style="fill: #178276; font: 600 8.2px 'DejaVu Sans'; text-anchor: start" x="45.353031" y="57.635839" transform="rotate(-0 45.353031 57.635839)">MRAM</text>
   </g>
   <g id="text_11">
    <!-- $U^*$ = 132.7 -->
    <g style="fill: #178276" transform="translate(137.234471 83.75328)">
     <text>
      <tspan style="font: oblique 7.7px 'DejaVu Sans'" x="0" y="-0.06562500000000071">U</tspan>
      <tspan style="font: 5.39px 'DejaVu Sans'" x="7.215268" y="-3.0078125000000004">*</tspan>
      <tspan style="font: 7.7px 'DejaVu Sans'" x="11.164447 13.608081 20.049365 22.492999 27.384021 32.275042 37.166064 38.984698" y="-0.06562500000000071"> = 132.7</tspan>
     </text>
    </g>
   </g>
   <g id="text_12">
    <!-- $\rho$ = 316.05 MB/s -->
    <g style="fill: #657382" transform="translate(122.898471 99.0288)">
     <text>
      <tspan style="font: oblique 7px 'DejaVu Sans'" x="0" y="-0.796875">ρ</tspan>
      <tspan style="font: 7px 'DejaVu Sans'" x="4.443359 6.668457 12.533691 14.758789 19.212402 23.666016 28.119629 30.344727 34.79834 39.251953 41.477051 47.516602 52.318848 54.677246" y="-0.796875"> = 316.05 MB/s</tspan>
     </text>
    </g>
   </g>
   <g id="PathCollection_1">
    <defs>
     <path id="m1be9bd692d" d="M -0.833333 2.5 
L 0.833333 2.5 
L 0.833333 0.833333 
L 2.5 0.833333 
L 2.5 -0.833333 
L 0.833333 -0.833333 
L 0.833333 -2.5 
L -0.833333 -2.5 
L -0.833333 -0.833333 
L -2.5 -0.833333 
L -2.5 0.833333 
L -0.833333 0.833333 
z
" style="stroke: #ffffff; stroke-width: 0.5"/>
    </defs>
    <g clip-path="url(#p0a6e54130f)">
     <use xlink:href="#m1be9bd692d" x="43.989878" y="135.480499" style="fill: #178276; stroke: #ffffff; stroke-width: 0.5"/>
     <use xlink:href="#m1be9bd692d" x="92.538932" y="62.932036" style="fill: #178276; stroke: #ffffff; stroke-width: 0.5"/>
     <use xlink:href="#m1be9bd692d" x="113.345669" y="60.223899" style="fill: #178276; stroke: #ffffff; stroke-width: 0.5"/>
     <use xlink:href="#m1be9bd692d" x="141.087985" y="60.223899" style="fill: #178276; stroke: #ffffff; stroke-width: 0.5"/>
     <use xlink:href="#m1be9bd692d" x="161.894723" y="60.223899" style="fill: #178276; stroke: #ffffff; stroke-width: 0.5"/>
     <use xlink:href="#m1be9bd692d" x="182.70146" y="60.223899" style="fill: #178276; stroke: #ffffff; stroke-width: 0.5"/>
    </g>
   </g>
   <g id="PathCollection_2">
    <defs>
     <path id="m9e582681eb" d="M -0.816497 2.44949 
L 0.816497 2.44949 
L 0.816497 0.816497 
L 2.44949 0.816497 
L 2.44949 -0.816497 
L 0.816497 -0.816497 
L 0.816497 -2.44949 
L -0.816497 -2.44949 
L -0.816497 -0.816497 
L -2.44949 -0.816497 
L -2.44949 0.816497 
L -0.816497 0.816497 
z
" style="stroke: #178276; stroke-width: 0.9"/>
    </defs>
    <g clip-path="url(#p0a6e54130f)">
     <use xlink:href="#m9e582681eb" x="92.902823" y="60.223899" style="fill: #ffffff; stroke: #178276; stroke-width: 0.9"/>
    </g>
   </g>
  </g>
  <g id="axes_2">
   <g id="patch_5">
    <path d="M 202.853938 139.464 
L 346.690382 139.464 
L 346.690382 49.608 
L 202.853938 49.608 
z
" style="fill: #ffffff"/>
   </g>
   <g id="line2d_15">
    <path d="M 202.853938 60.223899 
L 346.690382 60.223899 
" clip-path="url(#p6ed7ba6454)" style="fill: none; stroke-dasharray: 1.3,1.3; stroke-dashoffset: 0; stroke: #b6c1ca; stroke-width: 0.65"/>
   </g>
   <g id="line2d_16">
    <path d="M 284.646886 139.464 
L 284.646886 49.608 
" clip-path="url(#p6ed7ba6454)" style="fill: none; stroke-dasharray: 2.4,1.6; stroke-dashoffset: 0; stroke: #68737d; stroke-opacity: 0.7; stroke-width: 0.8"/>
   </g>
   <g id="matplotlib.axis_3">
    <g id="xtick_6">
     <g id="line2d_17">
      <g>
       <use xlink:href="#m6b4b9d5c99" x="205.086696" y="139.464" style="fill: #657382; stroke: #657382; stroke-width: 0.8"/>
      </g>
     </g>
     <g id="text_13">
      <text style="fill: #657382; font: 6.8px 'DejaVu Sans'; text-anchor: middle" x="205.086696" y="151.630938" transform="rotate(-0 205.086696 151.630938)">1</text>
     </g>
    </g>
    <g id="xtick_7">
     <g id="line2d_18">
      <g>
       <use xlink:href="#m6b4b9d5c99" x="253.635749" y="139.464" style="fill: #657382; stroke: #657382; stroke-width: 0.8"/>
      </g>
     </g>
     <g id="text_14">
      <text style="fill: #657382; font: 6.8px 'DejaVu Sans'; text-anchor: middle" x="253.635749" y="151.630938" transform="rotate(-0 253.635749 151.630938)">128</text>
     </g>
    </g>
    <g id="xtick_8">
     <g id="line2d_19">
      <g>
       <use xlink:href="#m6b4b9d5c99" x="274.442487" y="139.464" style="fill: #657382; stroke: #657382; stroke-width: 0.8"/>
      </g>
     </g>
     <g id="text_15">
      <text style="fill: #657382; font: 6.8px 'DejaVu Sans'; text-anchor: middle" x="274.442487" y="151.630938" transform="rotate(-0 274.442487 151.630938)">1K</text>
     </g>
    </g>
    <g id="xtick_9">
     <g id="line2d_20">
      <g>
       <use xlink:href="#m6b4b9d5c99" x="322.99154" y="139.464" style="fill: #657382; stroke: #657382; stroke-width: 0.8"/>
      </g>
     </g>
     <g id="text_16">
      <text style="fill: #657382; font: 6.8px 'DejaVu Sans'; text-anchor: middle" x="322.99154" y="151.630938" transform="rotate(-0 322.99154 151.630938)">128K</text>
     </g>
    </g>
    <g id="xtick_10">
     <g id="line2d_21">
      <g>
       <use xlink:href="#m6b4b9d5c99" x="343.798278" y="139.464" style="fill: #657382; stroke: #657382; stroke-width: 0.8"/>
      </g>
     </g>
     <g id="text_17">
      <text style="fill: #657382; font: 6.8px 'DejaVu Sans'; text-anchor: middle" x="343.798278" y="151.630938" transform="rotate(-0 343.798278 151.630938)">1M</text>
     </g>
    </g>
   </g>
   <g id="matplotlib.axis_4">
    <g id="ytick_4">
     <g id="line2d_22">
      <path d="M 202.853938 136.051747 
L 346.690382 136.051747 
" clip-path="url(#p6ed7ba6454)" style="fill: none; stroke: #e5eaf0; stroke-width: 0.6; stroke-linecap: square"/>
     </g>
     <g id="line2d_23">
      <g>
       <use xlink:href="#md3194b3492" x="202.853938" y="136.051747" style="fill: #657382; stroke: #657382; stroke-width: 0.8"/>
      </g>
     </g>
    </g>
    <g id="ytick_5">
     <g id="line2d_24">
      <path d="M 202.853938 98.137823 
L 346.690382 98.137823 
" clip-path="url(#p6ed7ba6454)" style="fill: none; stroke: #e5eaf0; stroke-width: 0.6; stroke-linecap: square"/>
     </g>
     <g id="line2d_25">
      <g>
       <use xlink:href="#md3194b3492" x="202.853938" y="98.137823" style="fill: #657382; stroke: #657382; stroke-width: 0.8"/>
      </g>
     </g>
    </g>
    <g id="ytick_6">
     <g id="line2d_26">
      <path d="M 202.853938 60.223899 
L 346.690382 60.223899 
" clip-path="url(#p6ed7ba6454)" style="fill: none; stroke: #e5eaf0; stroke-width: 0.6; stroke-linecap: square"/>
     </g>
     <g id="line2d_27">
      <g>
       <use xlink:href="#md3194b3492" x="202.853938" y="60.223899" style="fill: #657382; stroke: #657382; stroke-width: 0.8"/>
      </g>
     </g>
    </g>
   </g>
   <g id="patch_6">
    <path d="M 202.853938 139.464 
L 202.853938 49.608 
" style="fill: none; stroke: #82909c; stroke-width: 0.6; stroke-linejoin: miter; stroke-linecap: square"/>
   </g>
   <g id="patch_7">
    <path d="M 202.853938 139.464 
L 346.690382 139.464 
" style="fill: none; stroke: #82909c; stroke-width: 0.6; stroke-linejoin: miter; stroke-linecap: square"/>
   </g>
   <g id="line2d_28">
    <path d="M 205.086696 136.02504 
L 224.561961 135.864714 
L 233.703412 135.585418 
L 239.665227 135.205578 
L 244.43468 134.688831 
L 248.01177 134.103123 
L 251.191405 133.374206 
L 253.973586 132.515903 
L 256.358312 131.564302 
L 258.743038 130.356597 
L 260.73031 129.105341 
L 262.717582 127.579177 
L 264.704854 125.717706 
L 266.294672 123.93812 
L 267.884489 121.852079 
L 269.474307 119.406808 
L 271.064124 116.540447 
L 272.653942 113.18048 
L 274.243759 109.241906 
L 275.833577 104.625086 
L 277.423395 99.21322 
L 279.013212 92.869398 
L 280.60303 85.43313 
L 282.192847 76.716291 
L 283.782665 66.498358 
L 284.646886 60.223899 
L 343.798278 60.223899 
L 343.798278 60.223899 
" clip-path="url(#p6ed7ba6454)" style="fill: none; stroke: #68737d; stroke-width: 1.8; stroke-linecap: square"/>
   </g>
   <g id="text_18">
    <text style="fill: #68737d; font: 600 8.2px 'DejaVu Sans'; text-anchor: start" x="206.449849" y="57.635839" transform="rotate(-0 206.449849 57.635839)">3D NAND</text>
   </g>
   <g id="text_19">
    <!-- $U^*$ = 2,839 -->
    <g style="fill: #68737d" transform="translate(206.449849 73.86912)">
     <text>
      <tspan style="font: oblique 7.7px 'DejaVu Sans'" x="0" y="-0.06562500000000071">U</tspan>
      <tspan style="font: 5.39px 'DejaVu Sans'" x="7.215268" y="-3.0078125000000004">*</tspan>
      <tspan style="font: 7.7px 'DejaVu Sans'" x="11.164447 13.608081 20.049365 22.492999 27.384021 29.827655 34.718676 39.609698" y="-0.06562500000000071"> = 2,839</tspan>
     </text>
    </g>
   </g>
   <g id="text_20">
    <!-- $\rho$ = 6.83 MB/s -->
    <g style="fill: #657382" transform="translate(206.449849 86.44896)">
     <text>
      <tspan style="font: oblique 7px 'DejaVu Sans'" x="0" y="-0.796875">ρ</tspan>
      <tspan style="font: 7px 'DejaVu Sans'" x="4.443359 6.668457 12.533691 14.758789 19.212402 21.3125 25.766113 30.219727 32.444824 38.484375 43.286621 45.64502" y="-0.796875"> = 6.83 MB/s</tspan>
     </text>
    </g>
   </g>
   <g id="PathCollection_3">
    <defs>
     <path id="m7f481c5f65" d="M -0 2.5 
L 2.5 -2.5 
L -2.5 -2.5 
z
" style="stroke: #ffffff; stroke-width: 0.5"/>
    </defs>
    <g clip-path="url(#p6ed7ba6454)">
     <use xlink:href="#m7f481c5f65" x="205.086696" y="136.02504" style="fill: #68737d; stroke: #ffffff; stroke-width: 0.5"/>
     <use xlink:href="#m7f481c5f65" x="253.635749" y="132.633293" style="fill: #68737d; stroke: #ffffff; stroke-width: 0.5"/>
     <use xlink:href="#m7f481c5f65" x="274.442487" y="108.704114" style="fill: #68737d; stroke: #ffffff; stroke-width: 0.5"/>
     <use xlink:href="#m7f481c5f65" x="302.184803" y="60.223899" style="fill: #68737d; stroke: #ffffff; stroke-width: 0.5"/>
     <use xlink:href="#m7f481c5f65" x="322.99154" y="60.223899" style="fill: #68737d; stroke: #ffffff; stroke-width: 0.5"/>
     <use xlink:href="#m7f481c5f65" x="343.798278" y="60.223899" style="fill: #68737d; stroke: #ffffff; stroke-width: 0.5"/>
    </g>
   </g>
   <g id="PathCollection_4">
    <defs>
     <path id="mc4a274030d" d="M -0 2.44949 
L 2.44949 -2.44949 
L -2.44949 -2.44949 
z
" style="stroke: #68737d; stroke-width: 0.9"/>
    </defs>
    <g clip-path="url(#p6ed7ba6454)">
     <use xlink:href="#mc4a274030d" x="284.646886" y="60.223899" style="fill: #ffffff; stroke: #68737d; stroke-width: 0.9"/>
    </g>
   </g>
  </g>
  <g id="axes_3">
   <g id="patch_8">
    <path d="M 363.950756 139.464 
L 507.7872 139.464 
L 507.7872 49.608 
L 363.950756 49.608 
z
" style="fill: #ffffff"/>
   </g>
   <g id="line2d_29">
    <path d="M 363.950756 60.223899 
L 507.7872 60.223899 
" clip-path="url(#p63019fa3d5)" style="fill: none; stroke-dasharray: 1.3,1.3; stroke-dashoffset: 0; stroke: #b6c1ca; stroke-width: 0.65"/>
   </g>
   <g id="line2d_30">
    <path d="M 471.925112 139.464 
L 471.925112 49.608 
" clip-path="url(#p63019fa3d5)" style="fill: none; stroke-dasharray: 2.4,1.6; stroke-dashoffset: 0; stroke: #a37622; stroke-opacity: 0.7; stroke-width: 0.8"/>
   </g>
   <g id="matplotlib.axis_5">
    <g id="xtick_11">
     <g id="line2d_31">
      <g>
       <use xlink:href="#m6b4b9d5c99" x="366.183513" y="139.464" style="fill: #657382; stroke: #657382; stroke-width: 0.8"/>
      </g>
     </g>
     <g id="text_21">
      <text style="fill: #657382; font: 6.8px 'DejaVu Sans'; text-anchor: middle" x="366.183513" y="151.630938" transform="rotate(-0 366.183513 151.630938)">1</text>
     </g>
    </g>
    <g id="xtick_12">
     <g id="line2d_32">
      <g>
       <use xlink:href="#m6b4b9d5c99" x="414.732567" y="139.464" style="fill: #657382; stroke: #657382; stroke-width: 0.8"/>
      </g>
     </g>
     <g id="text_22">
      <text style="fill: #657382; font: 6.8px 'DejaVu Sans'; text-anchor: middle" x="414.732567" y="151.630938" transform="rotate(-0 414.732567 151.630938)">128</text>
     </g>
    </g>
    <g id="xtick_13">
     <g id="line2d_33">
      <g>
       <use xlink:href="#m6b4b9d5c99" x="435.539304" y="139.464" style="fill: #657382; stroke: #657382; stroke-width: 0.8"/>
      </g>
     </g>
     <g id="text_23">
      <text style="fill: #657382; font: 6.8px 'DejaVu Sans'; text-anchor: middle" x="435.539304" y="151.630938" transform="rotate(-0 435.539304 151.630938)">1K</text>
     </g>
    </g>
    <g id="xtick_14">
     <g id="line2d_34">
      <g>
       <use xlink:href="#m6b4b9d5c99" x="484.088358" y="139.464" style="fill: #657382; stroke: #657382; stroke-width: 0.8"/>
      </g>
     </g>
     <g id="text_24">
      <text style="fill: #657382; font: 6.8px 'DejaVu Sans'; text-anchor: middle" x="484.088358" y="151.630938" transform="rotate(-0 484.088358 151.630938)">128K</text>
     </g>
    </g>
    <g id="xtick_15">
     <g id="line2d_35">
      <g>
       <use xlink:href="#m6b4b9d5c99" x="504.895095" y="139.464" style="fill: #657382; stroke: #657382; stroke-width: 0.8"/>
      </g>
     </g>
     <g id="text_25">
      <text style="fill: #657382; font: 6.8px 'DejaVu Sans'; text-anchor: middle" x="504.895095" y="151.630938" transform="rotate(-0 504.895095 151.630938)">1M</text>
     </g>
    </g>
   </g>
   <g id="matplotlib.axis_6">
    <g id="ytick_7">
     <g id="line2d_36">
      <path d="M 363.950756 136.051747 
L 507.7872 136.051747 
" clip-path="url(#p63019fa3d5)" style="fill: none; stroke: #e5eaf0; stroke-width: 0.6; stroke-linecap: square"/>
     </g>
     <g id="line2d_37">
      <g>
       <use xlink:href="#md3194b3492" x="363.950756" y="136.051747" style="fill: #657382; stroke: #657382; stroke-width: 0.8"/>
      </g>
     </g>
    </g>
    <g id="ytick_8">
     <g id="line2d_38">
      <path d="M 363.950756 98.137823 
L 507.7872 98.137823 
" clip-path="url(#p63019fa3d5)" style="fill: none; stroke: #e5eaf0; stroke-width: 0.6; stroke-linecap: square"/>
     </g>
     <g id="line2d_39">
      <g>
       <use xlink:href="#md3194b3492" x="363.950756" y="98.137823" style="fill: #657382; stroke: #657382; stroke-width: 0.8"/>
      </g>
     </g>
    </g>
    <g id="ytick_9">
     <g id="line2d_40">
      <path d="M 363.950756 60.223899 
L 507.7872 60.223899 
" clip-path="url(#p63019fa3d5)" style="fill: none; stroke: #e5eaf0; stroke-width: 0.6; stroke-linecap: square"/>
     </g>
     <g id="line2d_41">
      <g>
       <use xlink:href="#md3194b3492" x="363.950756" y="60.223899" style="fill: #657382; stroke: #657382; stroke-width: 0.8"/>
      </g>
     </g>
    </g>
   </g>
   <g id="patch_9">
    <path d="M 363.950756 139.464 
L 363.950756 49.608 
" style="fill: none; stroke: #82909c; stroke-width: 0.6; stroke-linejoin: miter; stroke-linecap: square"/>
   </g>
   <g id="patch_10">
    <path d="M 363.950756 139.464 
L 507.7872 139.464 
" style="fill: none; stroke: #82909c; stroke-width: 0.6; stroke-linejoin: miter; stroke-linecap: square"/>
   </g>
   <g id="line2d_42">
    <path d="M 366.183513 136.049796 
L 407.121315 135.935038 
L 418.250038 135.696827 
L 425.006763 135.354483 
L 430.17367 134.883161 
L 434.148214 134.313264 
L 437.327849 133.662954 
L 440.11003 132.897211 
L 442.892211 131.886003 
L 445.276937 130.764878 
L 447.264209 129.603323 
L 449.251481 128.186568 
L 451.238753 126.458545 
L 452.82857 124.806536 
L 454.418388 122.870041 
L 456.008205 120.600069 
L 457.598023 117.939195 
L 459.187841 114.820101 
L 460.777658 111.163881 
L 462.367476 106.878036 
L 463.957293 101.854142 
L 465.547111 95.965103 
L 467.136928 89.061935 
L 468.726746 80.969998 
L 470.316564 71.48458 
L 471.925112 60.223899 
L 504.895095 60.223899 
L 504.895095 60.223899 
" clip-path="url(#p63019fa3d5)" style="fill: none; stroke: #a37622; stroke-width: 1.8; stroke-linecap: square"/>
   </g>
   <g id="text_26">
    <text style="fill: #a37622; font: 600 8.2px 'DejaVu Sans'; text-anchor: start" x="367.546667" y="57.635839" transform="rotate(-0 367.546667 57.635839)">2D NOR</text>
   </g>
   <g id="text_27">
    <!-- $U^*$ = 38,867 -->
    <g style="fill: #a37622" transform="translate(367.546667 73.86912)">
     <text>
      <tspan style="font: oblique 7.7px 'DejaVu Sans'" x="0" y="-0.06562500000000071">U</tspan>
      <tspan style="font: 5.39px 'DejaVu Sans'" x="7.215268" y="-3.0078125000000004">*</tspan>
      <tspan style="font: 7.7px 'DejaVu Sans'" x="11.164447 13.608081 20.049365 22.492999 27.384021 32.275042 34.718676 39.609698 44.50072" y="-0.06562500000000071"> = 38,867</tspan>
     </text>
    </g>
   </g>
   <g id="text_28">
    <!-- $\rho$ = 24.20 MB/s -->
    <g style="fill: #657382" transform="translate(367.546667 86.44896)">
     <text>
      <tspan style="font: oblique 7px 'DejaVu Sans'" x="0" y="-0.796875">ρ</tspan>
      <tspan style="font: 7px 'DejaVu Sans'" x="4.443359 6.668457 12.533691 14.758789 19.212402 23.666016 25.516113 29.969727 34.42334 36.648438 42.687988 47.490234 49.848633" y="-0.796875"> = 24.20 MB/s</tspan>
     </text>
    </g>
   </g>
   <g id="PathCollection_5">
    <defs>
     <path id="mc93d122c8e" d="M 0 -2.5 
L -2.5 2.5 
L 2.5 2.5 
z
" style="stroke: #ffffff; stroke-width: 0.5"/>
    </defs>
    <g clip-path="url(#p63019fa3d5)">
     <use xlink:href="#mc93d122c8e" x="366.183513" y="136.049796" style="fill: #a37622; stroke: #ffffff; stroke-width: 0.5"/>
     <use xlink:href="#mc93d122c8e" x="414.732567" y="135.802024" style="fill: #a37622; stroke: #ffffff; stroke-width: 0.5"/>
     <use xlink:href="#mc93d122c8e" x="435.539304" y="134.053961" style="fill: #a37622; stroke: #ffffff; stroke-width: 0.5"/>
     <use xlink:href="#mc93d122c8e" x="463.281621" y="104.087168" style="fill: #a37622; stroke: #ffffff; stroke-width: 0.5"/>
     <use xlink:href="#mc93d122c8e" x="484.088358" y="60.223899" style="fill: #a37622; stroke: #ffffff; stroke-width: 0.5"/>
     <use xlink:href="#mc93d122c8e" x="504.895095" y="60.223899" style="fill: #a37622; stroke: #ffffff; stroke-width: 0.5"/>
    </g>
   </g>
   <g id="PathCollection_6">
    <defs>
     <path id="m0a63bd104e" d="M 0 -2.44949 
L -2.44949 2.44949 
L 2.44949 2.44949 
z
" style="stroke: #a37622; stroke-width: 0.9"/>
    </defs>
    <g clip-path="url(#p63019fa3d5)">
     <use xlink:href="#m0a63bd104e" x="471.925112" y="60.223899" style="fill: #ffffff; stroke: #a37622; stroke-width: 0.9"/>
    </g>
   </g>
  </g>
  <g id="text_29">
   <text style="fill: #182838; font: 600 10px 'DejaVu Sans'; text-anchor: start" x="12.888" y="14.194187" transform="rotate(-0 12.888 14.194187)">D  |  How reuse approaches each streaming ceiling</text>
  </g>
  <g id="text_30">
   <!-- Typical paired scenarios:  $P_{\rm bound}/\rho = \min(1, U/U^*)$ -->
   <g style="fill: #182838" transform="translate(41.75712 27.144)">
    <text>
     <tspan style="font: 8px 'DejaVu Sans'" x="0 4.886719 9.621094 14.699219 16.921875 21.320312 26.222656 28.445312 30.988281 36.066406 40.96875 43.191406 46.480469 51.402344 56.480469 59.023438 63.191406 67.589844 72.511719 77.582031 82.484375 85.773438 87.996094 92.890625 97.058594 99.753906 102.296875 127.516797 136.848828 145.110547 152.903516 155.126172 160.196484 163.317578 168.407422 178.364453 192.676745" y="-0.78125">Typical paired scenarios:  /=min(1,/)</tspan>
     <tspan style="font: oblique 8px 'DejaVu Sans'" x="104.839844 130.212109 172.508984 181.059766" y="-0.78125">PρUU</tspan>
     <tspan style="font: 5.6px 'DejaVu Sans'" x="109.664062 113.21875 116.644922 120.194141 123.743359 188.566979" y="0.53125 0.53125 0.53125 0.53125 0.53125 -3.84375">bound*</tspan>
    </text>
   </g>
  </g>
  <g id="text_31">
   <!-- Filled: Table II(a) U scan  ·  Open: balance $U^*$ -->
   <g style="fill: #657382" transform="translate(41.75712 38.0016)">
    <text>
     <tspan style="font: 7.5px 'DejaVu Sans'" x="0 4.313965 6.397705 8.481445 10.565186 15.179443 19.940186 22.467041 24.851074 29.432373 34.02832 38.789062 40.872803 45.487061 47.871094 50.083008 52.294922 55.220947 59.816895 62.74292 65.126953 70.616455 73.000488 76.907959 81.031494 85.627441 90.380859 92.764893 95.148926 97.532959 99.916992 102.301025 108.204346 112.965088 117.579346 122.332764 124.859619 127.243652 132.004395 136.600342 138.684082 143.280029 148.033447 152.156982 156.77124" y="-0.2296875000000007">Filled: Table II(a) U scan  ·  Open: balance </tspan>
     <tspan style="font: oblique 7.5px 'DejaVu Sans'" x="159.155273" y="-0.2296875000000007">U</tspan>
     <tspan style="font: 5.25px 'DejaVu Sans'" x="166.193514" y="-3.1062500000000006">*</tspan>
    </text>
   </g>
  </g>
  <g id="text_32">
   <text style="fill: #182838; font: 8px 'DejaVu Sans'; text-anchor: middle" x="270.648" y="168.1056" transform="rotate(-0 270.648 168.1056)">Reuse U (vectors / full native load)</text>
  </g>
  <g id="text_33">
   <text style="fill: #657382; font: 7.5px 'DejaVu Sans'; text-anchor: middle" x="270.648" y="182.1456" transform="rotate(-0 270.648 182.1456)">Equal normalized plateaus have different absolute streaming ceilings.</text>
  </g>
 </g>
 <defs>
  <clipPath id="p0a6e54130f">
   <rect x="41.75712" y="49.608" width="143.836444" height="89.856"/>
  </clipPath>
  <clipPath id="p6ed7ba6454">
   <rect x="202.853938" y="49.608" width="143.836444" height="89.856"/>
  </clipPath>
  <clipPath id="p63019fa3d5">
   <rect x="363.950756" y="49.608" width="143.836444" height="89.856"/>
  </clipPath>
 </defs>
</svg>
